<svg width="32" height="32" viewBox="0 0 32 32" fill="none" xmlns="http://www.w3.org/2000/svg">
<path d="M6.66653 17.3333C6.66653 12.9151 10.2483 9.33333 14.6665 9.33333M6.66653 17.3333C6.66653 19.5312 7.55283 21.522 8.98752 22.9679C9.12589 23.1074 9.19507 23.1771 9.23591 23.2442C9.27487 23.3081 9.29756 23.3632 9.31496 23.4361C9.3332 23.5124 9.3332 23.5993 9.3332 23.7731V26.9333C9.3332 27.3067 9.3332 27.4934 9.40586 27.636C9.46978 27.7614 9.57176 27.8634 9.69721 27.9273C9.83981 28 10.0265 28 10.3999 28H12.9332C13.3066 28 13.4933 28 13.6359 27.9273C13.7613 27.8634 13.8633 27.7614 13.9272 27.636C13.9999 27.4934 13.9999 27.3067 13.9999 26.9333V26.4C13.9999 26.0266 13.9999 25.8399 14.0725 25.6973C14.1364 25.5719 14.2384 25.4699 14.3639 25.406C14.5065 25.3333 14.6932 25.3333 15.0665 25.3333H16.9332C17.3066 25.3333 17.4933 25.3333 17.6359 25.406C17.7613 25.4699 17.8633 25.5719 17.9272 25.6973C17.9999 25.8399 17.9999 26.0266 17.9999 26.4V26.9333C17.9999 27.3067 17.9999 27.4934 18.0725 27.636C18.1364 27.7614 18.2384 27.8634 18.3639 27.9273C18.5065 28 18.6932 28 19.0665 28H21.6C21.9733 28 22.16 28 22.3026 27.9273C22.4281 27.8634 22.53 27.7614 22.594 27.636C22.6666 27.4934 22.6666 27.3067 22.6666 26.9333V25.6324C22.6666 25.363 22.6666 25.2283 22.705 25.1202C22.7417 25.0165 22.788 24.944 22.8666 24.867C22.9485 24.7867 23.0873 24.7222 23.3649 24.5934C24.6745 23.9854 25.792 23.0334 26.6015 21.8536C26.7438 21.6461 26.815 21.5423 26.891 21.4811C26.9636 21.4225 27.0288 21.3881 27.1183 21.3613C27.2118 21.3333 27.3229 21.3333 27.5449 21.3333H28.2666C28.64 21.3333 28.8267 21.3333 28.9693 21.2607C29.0947 21.1968 29.1967 21.0948 29.2606 20.9693C29.3333 20.8267 29.3333 20.64 29.3333 20.2667V15.7143C29.3333 15.3589 29.3333 15.1812 29.2673 15.044C29.2017 14.908 29.092 14.7982 28.9559 14.7327C28.8188 14.6667 28.6411 14.6667 28.2856 14.6667C28.0283 14.6667 27.8997 14.6667 27.7961 14.6317C27.6844 14.5941 27.606 14.544 27.5249 14.4584C27.4498 14.379 27.3884 14.2462 27.2657 13.9806C26.8717 13.1283 26.3322 12.357 25.679 11.6987C25.5406 11.5593 25.4714 11.4896 25.4306 11.4225C25.3916 11.3585 25.3689 11.3034 25.3515 11.2306C25.3333 11.1542 25.3333 11.0673 25.3333 10.8936V9.4141C25.3333 8.93404 25.3333 8.69401 25.2333 8.53267C25.1458 8.39134 25.0085 8.28784 24.8486 8.24246C24.666 8.19066 24.4352 8.2566 23.9736 8.38848L20.8102 9.29229C20.7564 9.30765 20.7295 9.31533 20.7022 9.32072C20.6779 9.32551 20.6534 9.32895 20.6288 9.33101C20.601 9.33333 20.5728 9.33333 20.5165 9.33333H14.6665M6.66653 17.3333H5.33329C3.86053 17.3333 2.66663 16.1394 2.66663 14.6667C2.66663 13.6796 3.20289 12.8178 3.99996 12.3568M14.6665 9.33333H19.9527C19.9838 9.1156 20 8.89301 20 8.66667C20 6.08934 17.9106 4 15.3333 4C12.756 4 10.6666 6.08934 10.6666 8.66667C10.6666 9.22294 10.764 9.75648 10.9425 10.2512C12.0548 9.66508 13.3219 9.33333 14.6665 9.33333Z" stroke="white" stroke-width="2" stroke-linecap="round" stroke-linejoin="round"/>
</svg>
