<svg width="343" height="186" viewBox="0 0 343 186" fill="none" xmlns="http://www.w3.org/2000/svg">
<rect y="166.5" width="14.2632" height="19" fill="white"/>
<rect x="18.2632" y="168.5" width="14.2632" height="17" fill="white"/>
<rect x="36.5264" y="172.5" width="14.2632" height="13" fill="white"/>
<rect x="54.7896" y="174.5" width="14.2632" height="11" fill="white"/>
<rect x="73.0527" y="170.5" width="14.2632" height="15" fill="white"/>
<rect x="91.3159" y="167.5" width="14.2632" height="18" fill="white"/>
<rect x="109.579" y="163.5" width="14.2632" height="22" fill="white"/>
<rect x="127.842" y="168.5" width="14.2632" height="17" fill="white"/>
<rect x="146.105" y="158.5" width="14.2632" height="27" fill="white"/>
<rect x="164.368" y="151.5" width="14.2632" height="34" fill="white"/>
<rect x="182.632" y="146.5" width="14.2632" height="39" fill="white"/>
<rect x="200.895" y="142.5" width="14.2632" height="43" fill="white"/>
<rect x="219.158" y="128.5" width="14.2632" height="57" fill="white"/>
<rect x="237.421" y="117.5" width="14.2632" height="68" fill="white"/>
<rect x="255.684" y="96.5" width="14.2632" height="89" fill="white"/>
<rect x="273.947" y="67.5" width="14.2632" height="118" fill="white"/>
<rect x="292.21" y="44.5" width="14.2632" height="141" fill="white"/>
<rect x="310.474" y="19.5" width="14.2632" height="166" fill="white"/>
<rect x="328.737" y="0.5" width="14.2632" height="185" fill="white"/>
</svg>
