<svg width="25" height="24" viewBox="0 0 25 24" fill="none" xmlns="http://www.w3.org/2000/svg">
<path fill-rule="evenodd" clip-rule="evenodd" d="M13.0428 4.2354C12.5732 3.92153 12.0268 3.92153 11.5571 4.2354L11.5401 4.24654L5.36099 8.19666C4.67821 8.63225 4.29999 9.38393 4.29999 10.1372V18.5761C4.29999 19.3728 4.92925 20 5.7179 20H18.8821C19.6707 20 20.3 19.3728 20.3 18.5761V10.1372C20.3 9.35818 19.8879 8.65983 19.2195 8.18424L13.0599 4.24654L13.0428 4.2354ZM14.145 2.56647C13.0073 1.81117 11.5927 1.81118 10.455 2.56648L4.28455 6.51106C4.28441 6.51115 4.28469 6.51097 4.28455 6.51106C2.99745 7.33237 2.29999 8.73592 2.29999 10.1372V18.5761C2.29999 20.4726 3.81998 22 5.7179 22H18.8821C20.78 22 22.3 20.4726 22.3 18.5761V10.1372C22.3 8.5883 21.465 7.31662 20.352 6.53555C20.3403 6.5273 20.3283 6.5193 20.3162 6.51157L14.145 2.56647Z" fill="white"/>
</svg>
