<svg width="32" height="32" viewBox="0 0 32 32" fill="none" xmlns="http://www.w3.org/2000/svg">
<path d="M28.2805 21.1867C27.4323 23.1927 26.1055 24.9603 24.4163 26.3351C22.7271 27.7099 20.7269 28.6499 18.5904 29.0731C16.454 29.4962 14.2464 29.3895 12.1607 28.7624C10.075 28.1353 8.17466 27.0068 6.62586 25.4756C5.07705 23.9443 3.92692 22.057 3.27601 19.9786C2.6251 17.9002 2.49325 15.694 2.89196 13.5529C3.29068 11.4117 4.20782 9.40085 5.56322 7.69605C6.91863 5.99125 8.67101 4.64443 10.6672 3.77334M28.3189 10.8976C28.8527 12.1862 29.1801 13.5485 29.2912 14.9345C29.3186 15.2769 29.3324 15.4481 29.2644 15.6023C29.2076 15.7311 29.0951 15.853 28.9712 15.9199C28.8229 16 28.6377 16 28.2672 16H17.0672C16.6938 16 16.5071 16 16.3645 15.9273C16.2391 15.8634 16.1371 15.7614 16.0732 15.636C16.0005 15.4934 16.0005 15.3067 16.0005 14.9333V3.73334C16.0005 3.36286 16.0005 3.17761 16.0806 3.02932C16.1475 2.90545 16.2694 2.79293 16.3982 2.73614C16.5524 2.66815 16.7236 2.68187 17.066 2.70932C18.452 2.82044 19.8143 3.14785 21.1029 3.68162C22.7206 4.35168 24.1905 5.33381 25.4286 6.57192C26.6667 7.81004 27.6488 9.27989 28.3189 10.8976Z" stroke="white" stroke-width="2" stroke-linecap="round" stroke-linejoin="round"/>
</svg>
