<svg width="32" height="32" viewBox="0 0 32 32" fill="none" xmlns="http://www.w3.org/2000/svg">
<path d="M21.3333 9.33333C21.3333 8.09337 21.3333 7.47339 21.197 6.96472C20.8271 5.58436 19.7489 4.50617 18.3686 4.1363C17.8599 4 17.2399 4 16 4C14.76 4 14.14 4 13.6314 4.1363C12.251 4.50617 11.1728 5.58436 10.8029 6.96472C10.6666 7.47339 10.6666 8.09337 10.6666 9.33333M6.93329 28H25.0666C26.5601 28 27.3068 28 27.8773 27.7094C28.379 27.4537 28.787 27.0457 29.0426 26.544C29.3333 25.9735 29.3333 25.2268 29.3333 23.7333V13.6C29.3333 12.1065 29.3333 11.3598 29.0426 10.7894C28.787 10.2876 28.379 9.87965 27.8773 9.62398C27.3068 9.33333 26.5601 9.33333 25.0666 9.33333H6.93329C5.43982 9.33333 4.69308 9.33333 4.12265 9.62398C3.62089 9.87965 3.21294 10.2876 2.95728 10.7894C2.66663 11.3598 2.66663 12.1065 2.66663 13.6V23.7333C2.66663 25.2268 2.66663 25.9735 2.95728 26.544C3.21294 27.0457 3.62089 27.4537 4.12265 27.7094C4.69308 28 5.43982 28 6.93329 28Z" stroke="white" stroke-width="2" stroke-linecap="round" stroke-linejoin="round"/>
</svg>
